<?xml version="1.0" encoding="UTF-8"?>
<svg xmlns="http://www.w3.org/2000/svg"
     width="1200" height="800" viewBox="0 0 1200 800">
  <rect width="100%" height="100%" fill="#FFFFFF"/>
  <text x="50%" y="30" text-anchor="middle"
       font-family="Arial, sans-serif" font-size="18" font-weight="bold">
    v1_test_mutable_borrow_chain.rs
  </text>
  <g id="legend" transform="translate(20, 50)">
    <text font-family="Arial" font-size="14" font-weight="bold">Legend</text>
    <rect x="0" y="20" width="20" height="20" fill="#4CAF50" stroke="#333"/>
    <text x="30" y="35" font-family="Arial" font-size="12">Owned</text>
    <rect x="0" y="45" width="20" height="20" fill="#FF9800" stroke="#333"/>
    <text x="30" y="60" font-family="Arial" font-size="12">Moved</text>
    <rect x="0" y="70" width="20" height="20" fill="#2196F3" stroke="#333"/>
    <text x="30" y="85" font-family="Arial" font-size="12">Borrowed</text>
    <rect x="0" y="95" width="20" height="20" fill="#9E9E9E" stroke="#333"/>
    <text x="30" y="110" font-family="Arial" font-size="12">Dropped</text>
  </g>
  <g id="stats" transform="translate(1050, 50)">
    <text font-family="Arial" font-size="14" font-weight="bold">Statistics</text>
    <text x="0" y="20" font-family="Arial" font-size="12">Nodes: 3</text>
    <text x="0" y="40" font-family="Arial" font-size="12">Edges: 0</text>
  </g>
<rect x="420" y="80" width="360" height="110" rx="10" fill="#E3F2FD" stroke="#1976D2" stroke-width="2"/>
<text x="600" y="105" text-anchor="middle" font-family="Arial" font-size="14" font-weight="bold" fill="#1976D2">Scope 2</text>
  <g transform="translate(480, 135)">
    <rect x="-40" y="-20" width="80" height="40" rx="5" fill="#F44336" stroke="#333" stroke-width="2"/>
    <text x="0" y="5" text-anchor="middle" font-family="Arial" font-size="14" font-weight="bold" fill="#D32F2F">x</text>
    <text x="0" y="18" text-anchor="middle" font-family="Arial" font-size="10" fill="#D32F2F">mut</text>
  </g>
  <g transform="translate(600, 135)">
    <rect x="-40" y="-20" width="80" height="40" rx="5" fill="#4CAF50" stroke="#333" stroke-width="2"/>
    <text x="0" y="5" text-anchor="middle" font-family="Arial" font-size="14" font-weight="bold" fill="#333">r1</text>
  </g>
  <g transform="translate(720, 135)">
    <rect x="-40" y="-20" width="80" height="40" rx="5" fill="#4CAF50" stroke="#333" stroke-width="2"/>
    <text x="0" y="5" text-anchor="middle" font-family="Arial" font-size="14" font-weight="bold" fill="#333">r2</text>
  </g>
  <text x="50%" y="780" text-anchor="middle"
       font-family="Arial" font-size="12" fill="#666">
    Generated by RustVisualizer v2.0
  </text>
</svg>
